<svg width="80" height="43" xmlns="http://www.w3.org/2000/svg">
 <mask id="path-1-inside-1">
  <path id="svg_1" d="m52.3857,12.5252c0,3.4662 -1.3997,6.6044 -3.6551,8.8738c6.9869,2.9599 12.9478,10.485 12.9478,17.7553c0,2.1208 -1.7061,3.8457 -3.8034,3.8457l-35.7513,0c-2.1014,0 -3.8074,-1.7249 -3.8074,-3.8457c0,-7.2711 5.9612,-14.7963 12.9514,-17.7557c-2.2551,-2.2695 -3.6547,-5.4076 -3.6547,-8.8734c0,-6.90902 5.5541,-12.5252 12.3865,-12.5252c6.8324,0 12.3862,5.61618 12.3862,12.5252zm-4.9528,0c0,-4.14375 -3.3359,-7.51673 -7.4334,-7.51673c-4.0979,0 -7.4334,3.37298 -7.4334,7.51673c0,4.144 3.3355,7.5169 7.4334,7.5169c4.0975,0 7.4334,-3.3729 7.4334,-7.5169zm-10.2167,12.5253c-6.1345,0 -13.0799,6.6602 -13.8704,12.9411l33.303,0c-0.7905,-6.2809 -7.732,-12.9411 -13.8664,-12.9411l-5.5662,0zm-22.1825,4.1982l1.9001,0c1.9411,-3.5914 4.8319,-6.8494 8.3011,-9.23c-1.156,-2.297 -1.7348,-4.8442 -1.7348,-7.4756c0,-0.4594 0,-0.919 0.0826,-1.3365c-1.7343,-1.42012 -3.9647,-2.297 -6.4013,-2.297c-5.5342,0 -10.07774,4.5521 -10.07774,10.1907c0,2.4637 0.94984,4.7194 2.39579,6.5153c-5.24532,2.5054 -9.49945,8.2271 -9.49945,13.8657c0,1.9208 1.56948,3.5078 3.511,3.5078l11.6462,0c-0.6191,-1.1689 -0.9912,-2.4636 -0.9912,-3.8423c0,-0.3759 0,-0.7517 0.0413,-1.1694l-9.08601,0c0.9085,-4.3435 5.69961,-8.7287 9.91241,-8.7287zm2.1477,-15.3272c2.8087,0 5.1213,2.2971 5.1213,5.1788c0,2.8396 -2.3126,5.1366 -5.1213,5.1366c-2.8087,0 -5.1218,-2.297 -5.1218,-5.1366c0,-2.8817 2.3131,-5.1788 5.1218,-5.1788zm55.7152,5.1788c0,2.4637 -0.9503,4.7194 -2.3954,6.5153c5.2452,2.5054 9.4988,8.2271 9.4988,13.8657c0,1.9208 -1.5694,3.5078 -3.5102,3.5078l-11.6886,0c0.6612,-1.1272 0.9912,-2.4636 0.9912,-3.8423c0,-0.3759 0,-0.7517 -0.0413,-1.1694l9.1276,0c-0.9082,-4.3435 -5.6996,-8.7287 -9.9123,-8.7287l-1.8581,0c-1.9825,-3.5914 -4.8735,-6.8494 -8.3428,-9.23c1.1564,-2.297 1.7342,-4.8442 1.7342,-7.4756c0,-0.4594 0,-0.919 -0.0822,-1.3365c1.7346,-1.42012 3.9645,-2.297 6.4013,-2.297c5.5347,0 10.0778,4.5521 10.0778,10.1907zm-15.1992,0c0,2.8396 2.3133,5.1366 5.1214,5.1366c2.8088,0 5.1213,-2.297 5.1213,-5.1366c0,-2.8817 -2.3125,-5.1788 -5.1213,-5.1788c-2.8081,0 -5.1214,2.2971 -5.1214,5.1788z" clip-rule="evenodd" fill-rule="evenodd"/>
 </mask>

 <g>
  <title>background</title>
  <rect fill="none" id="canvas_background" height="402" width="582" y="-1" x="-1"/>
 </g>
 <g>
  <title>Layer 1</title>
  <path id="svg_2" fill="#007fff" d="m52.3857,12.5252c0,3.4662 -1.3997,6.6044 -3.6551,8.8738c6.9869,2.9599 12.9478,10.485 12.9478,17.7553c0,2.1208 -1.7061,3.8457 -3.8034,3.8457l-35.7513,0c-2.1014,0 -3.8074,-1.7249 -3.8074,-3.8457c0,-7.2711 5.9612,-14.7963 12.9514,-17.7557c-2.2551,-2.2695 -3.6547,-5.4076 -3.6547,-8.8734c0,-6.90902 5.5541,-12.5252 12.3865,-12.5252c6.8324,0 12.3862,5.61618 12.3862,12.5252zm-4.9528,0c0,-4.14375 -3.3359,-7.51673 -7.4334,-7.51673c-4.0979,0 -7.4334,3.37298 -7.4334,7.51673c0,4.144 3.3355,7.5169 7.4334,7.5169c4.0975,0 7.4334,-3.3729 7.4334,-7.5169zm-10.2167,12.5253c-6.1345,0 -13.0799,6.6602 -13.8704,12.9411l33.303,0c-0.7905,-6.2809 -7.732,-12.9411 -13.8664,-12.9411l-5.5662,0zm-22.1825,4.1982l1.9001,0c1.9411,-3.5914 4.8319,-6.8494 8.3011,-9.23c-1.156,-2.297 -1.7348,-4.8442 -1.7348,-7.4756c0,-0.4594 0,-0.919 0.0826,-1.3365c-1.7343,-1.42012 -3.9647,-2.297 -6.4013,-2.297c-5.5342,0 -10.07774,4.5521 -10.07774,10.1907c0,2.4637 0.94984,4.7194 2.39579,6.5153c-5.24532,2.5054 -9.49945,8.2271 -9.49945,13.8657c0,1.9208 1.56948,3.5078 3.511,3.5078l11.6462,0c-0.6191,-1.1689 -0.9912,-2.4636 -0.9912,-3.8423c0,-0.3759 0,-0.7517 0.0413,-1.1694l-9.08601,0c0.9085,-4.3435 5.69961,-8.7287 9.91241,-8.7287zm2.1477,-15.3272c2.8087,0 5.1213,2.2971 5.1213,5.1788c0,2.8396 -2.3126,5.1366 -5.1213,5.1366c-2.8087,0 -5.1218,-2.297 -5.1218,-5.1366c0,-2.8817 2.3131,-5.1788 5.1218,-5.1788zm55.7152,5.1788c0,2.4637 -0.9503,4.7194 -2.3954,6.5153c5.2452,2.5054 9.4988,8.2271 9.4988,13.8657c0,1.9208 -1.5694,3.5078 -3.5102,3.5078l-11.6886,0c0.6612,-1.1272 0.9912,-2.4636 0.9912,-3.8423c0,-0.3759 0,-0.7517 -0.0413,-1.1694l9.1276,0c-0.9082,-4.3435 -5.6996,-8.7287 -9.9123,-8.7287l-1.8581,0c-1.9825,-3.5914 -4.8735,-6.8494 -8.3428,-9.23c1.1564,-2.297 1.7342,-4.8442 1.7342,-7.4756c0,-0.4594 0,-0.919 -0.0822,-1.3365c1.7346,-1.42012 3.9645,-2.297 6.4013,-2.297c5.5347,0 10.0778,4.5521 10.0778,10.1907zm-15.1992,0c0,2.8396 2.3133,5.1366 5.1214,5.1366c2.8088,0 5.1213,-2.297 5.1213,-5.1366c0,-2.8817 -2.3125,-5.1788 -5.1213,-5.1788c-2.8081,0 -5.1214,2.2971 -5.1214,5.1788z" clip-rule="evenodd" fill-rule="evenodd"/>
  <path id="svg_3" mask="url(#path-1-inside-1)" fill="#222222" d="m48.7306,21.399l-1.1349,-1.1278l-1.6679,1.6782l2.1786,0.9229l0.6242,-1.4733zm-17.4629,-0.0004l0.6238,1.4734l2.1791,-0.9226l-1.6679,-1.6786l-1.135,1.1278zm-7.9219,16.593l-1.5875,-0.1998l-0.2265,1.7998l1.814,0l0,-1.6zm33.303,0l0,1.6l1.814,0l-0.2265,-1.7998l-1.5875,0.1998zm-39.715,-8.7429l0,1.6l0.954,0l0.4536,-0.8393l-1.4076,-0.7607zm8.3011,-9.23l0.9053,1.3193l1.152,-0.7905l-0.6281,-1.2481l-1.4292,0.7193zm-1.6522,-8.8121l1.5696,0.3108l0.1863,-0.941l-0.7422,-0.60774l-1.0137,1.23794zm-14.08325,14.409l0.68965,1.4437l1.8251,-0.8717l-1.2685,-1.5755l-1.24625,1.0035zm5.65775,17.3735l0,1.6l2.6579,0l-1.244,-2.3488l-1.4139,0.7488zm-0.9499,-5.0117l1.5922,0.1576l0.174,-1.7576l-1.7662,0l0,1.6zm-9.08601,0l-1.56611,-0.3276l-0.40318,1.9276l1.96929,0l0,-1.6zm65.37991,-12.3618l-1.2466,-1.0031l-1.2676,1.5753l1.8245,0.8715l0.6897,-1.4437zm-5.7,17.3735l-1.3801,-0.8095l-1.4134,2.4095l2.7935,0l0,-1.6zm0.9499,-5.0117l0,-1.6l-1.766,0l0.1738,1.7575l1.5922,-0.1575zm9.1276,0l0,1.6l1.9691,0l-0.403,-1.9275l-1.5661,0.3275zm-11.7704,-8.7287l-1.4008,0.7732l0.4564,0.8268l0.9444,0l0,-1.6zm-8.3428,-9.23l-1.4291,-0.7195l-0.6284,1.2482l1.1522,0.7906l0.9053,-1.3193zm1.652,-8.8121l-1.0135,-1.23803l-0.7414,0.60693l0.185,0.9401l1.5699,-0.309zm-5.6318,1.3186c0,3.0271 -1.2207,5.7644 -3.19,7.746l2.2697,2.2557c2.5416,-2.5574 4.1203,-6.0965 4.1203,-10.0017l-3.2,0zm-2.6793,10.3471c3.2109,1.3602 6.2281,3.7932 8.4369,6.7463c2.2123,2.9577 3.5351,6.3286 3.5351,9.5357l3.2,0c0,-4.0632 -1.6576,-8.09 -4.1726,-11.4524c-2.5184,-3.367 -5.9751,-6.1765 -9.7511,-7.7761l-1.2483,2.9465zm11.972,16.282c0,1.2538 -1.0063,2.2457 -2.2034,2.2457l0,3.2c2.9975,0 5.4034,-2.4579 5.4034,-5.4457l-3.2,0zm-2.2034,2.2457l-35.7513,0l0,3.2l35.7513,0l0,-3.2zm-35.7513,0c-1.2022,0 -2.2074,-0.993 -2.2074,-2.2457l-3.2,0c0,2.9889 2.4069,5.4457 5.4074,5.4457l0,-3.2zm-2.2074,-2.2457c0,-3.2075 1.3229,-6.5786 3.5355,-9.5363c2.2092,-2.953 5.2273,-5.3859 8.4397,-6.746l-1.2476,-2.9468c-3.7777,1.5994 -7.2354,4.4088 -9.7544,7.7759c-2.5155,3.3625 -4.1732,7.3896 -4.1732,11.4532l3.2,0zm12.4864,-18.8835c-1.9691,-1.9815 -3.1897,-4.7189 -3.1897,-7.7456l-3.2,0c0,3.9048 1.5786,7.4438 4.1198,10.0012l2.2699,-2.2556zm-3.1897,-7.7456c0,-6.0422 4.8545,-10.9252 10.7865,-10.9252l0,-3.2c-7.7328,0 -13.9865,6.34937 -13.9865,14.1252l3.2,0zm10.7865,-10.9252c5.932,0 10.7862,4.88295 10.7862,10.9252l3.2,0c0,-7.77578 -6.2533,-14.1252 -13.9862,-14.1252l0,3.2zm9.0334,10.9252c0,-5.01058 -4.0355,-9.11673 -9.0334,-9.11673l0,3.2c3.1971,0 5.8334,2.6398 5.8334,5.91673l3.2,0zm-9.0334,-9.11673c-4.9983,0 -9.0334,4.10621 -9.0334,9.11673l3.2,0c0,-3.27698 2.636,-5.91673 5.8334,-5.91673l0,-3.2zm-9.0334,9.11673c0,5.0108 4.0351,9.1169 9.0334,9.1169l0,-3.2c-3.1974,0 -5.8334,-2.6396 -5.8334,-5.9169l-3.2,0zm9.0334,9.1169c4.9979,0 9.0334,-4.1061 9.0334,-9.1169l-3.2,0c0,3.2772 -2.6363,5.9169 -5.8334,5.9169l0,3.2zm-2.7833,1.8084c-3.6108,0 -7.2537,1.9303 -10.0361,4.5504c-2.7898,2.627 -4.9676,6.1825 -5.4218,9.7909l3.175,0.3996c0.3363,-2.6725 2.0264,-5.5876 4.4406,-7.8609c2.4216,-2.2803 5.3187,-3.68 7.8423,-3.68l0,-3.2zm-13.8704,16.1411l33.303,0l0,-3.2l-33.303,0l0,3.2zm34.8905,-1.7998c-0.4541,-3.6081 -2.6308,-7.1636 -5.4196,-9.7907c-2.7815,-2.6202 -6.4234,-4.5506 -10.0343,-4.5506l0,3.2c2.5235,0 5.4195,1.3996 7.8401,3.6798c2.4131,2.2732 4.1024,5.1883 4.4388,7.8611l3.175,-0.3996zm-15.4539,-14.3413l-5.5662,0l0,3.2l5.5662,0l0,-3.2zm-27.7487,7.3982l1.9001,0l0,-3.2l-1.9001,0l0,3.2zm3.3077,-0.8393c1.8221,-3.3713 4.5421,-6.4367 7.7988,-8.6714l-1.8106,-2.6385c-3.6816,2.5263 -6.7434,5.977 -8.8033,9.7884l2.8151,1.5215zm8.3227,-10.71c-1.0376,-2.0617 -1.564,-4.3608 -1.564,-6.7563l-3.2,0c0,2.8672 0.6311,5.6626 1.9056,8.1949l2.8584,-1.4386zm-1.564,-6.7563c0,-0.4952 0.0056,-0.7906 0.0522,-1.0257l-3.1391,-0.6216c-0.1188,0.5999 -0.1131,1.2237 -0.1131,1.6473l3.2,0zm-0.5037,-2.57444c-2.0037,-1.64073 -4.5881,-2.65906 -7.415,-2.65906l0,3.2c2.0463,0 3.9228,0.7354 5.3877,1.9349l2.0273,-2.47584zm-7.415,-2.65906c-6.4303,0 -11.67774,5.281 -11.67774,11.7907l3.2,0c0,-4.7674 3.83964,-8.5907 8.47774,-8.5907l0,-3.2zm-11.67774,11.7907c0,2.8843 1.1121,5.485 2.74954,7.5187l2.4925,-2.0069c-1.25446,-1.558 -2.04204,-3.4687 -2.04204,-5.5118l-3.2,0zm3.30618,5.0715c-5.68434,2.7152 -10.40984,8.9344 -10.40984,15.3095l3.2,0c0,-4.902 3.78277,-10.1262 8.5891,-12.422l-1.37926,-2.8875zm-10.40984,15.3095c0,2.8002 2.28158,5.1078 5.111,5.1078l0,-3.2c-1.05361,0 -1.911,-0.8664 -1.911,-1.9078l-3.2,0zm5.111,5.1078l11.6462,0l0,-3.2l-11.6462,0l0,3.2zm13.0601,-2.3488c-0.5138,-0.9701 -0.8051,-2.0097 -0.8051,-3.0935l-3.2,0c0,1.6735 0.4528,3.2233 1.1772,4.5912l2.8279,-1.4977zm-0.8051,-3.0935c0,-0.3825 0.001,-0.6835 0.0335,-1.0118l-3.1844,-0.3152c-0.0502,0.507 -0.0491,0.9578 -0.0491,1.327l3.2,0zm-1.5587,-2.7694l-9.08601,0l0,3.2l9.08601,0l0,-3.2zm-7.5199,1.9276c0.36808,-1.7598 1.56775,-3.6567 3.21596,-5.1267c1.65844,-1.4792 3.54614,-2.3296 5.13034,-2.3296l0,-3.2c-2.6287,0 -5.24291,1.3421 -7.26032,3.1415c-2.02765,1.8084 -3.67778,4.2759 -4.2182,6.8596l3.13222,0.6552zm10.494,-22.7835c1.9166,0 3.5213,1.5722 3.5213,3.5788l3.2,0c0,-3.7569 -3.0205,-6.7788 -6.7213,-6.7788l0,3.2zm3.5213,3.5788c0,1.9559 -1.5962,3.5366 -3.5213,3.5366l0,3.2c3.6923,0 6.7213,-3.0133 6.7213,-6.7366l-3.2,0zm-3.5213,3.5366c-1.9253,0 -3.5218,-1.5809 -3.5218,-3.5366l-3.2,0c0,3.7235 3.0297,6.7366 6.7218,6.7366l0,-3.2zm-3.5218,-3.5366c0,-2.0064 1.605,-3.5788 3.5218,-3.5788l0,-3.2c-3.7006,0 -6.7218,3.0217 -6.7218,6.7788l3.2,0zm57.637,0c0,2.043 -0.7879,3.9538 -2.042,5.5122l2.4931,2.0061c1.6362,-2.0333 2.7489,-4.6339 2.7489,-7.5183l-3.2,0zm-1.4851,7.959c4.8062,2.2957 8.5885,7.5199 8.5885,12.422l3.2,0c0,-6.375 -4.7249,-12.5943 -10.4092,-15.3095l-1.3793,2.8875zm8.5885,12.422c0,1.0417 -0.8576,1.9078 -1.9102,1.9078l0,3.2c2.8289,0 5.1102,-2.3079 5.1102,-5.1078l-3.2,0zm-1.9102,1.9078l-11.6886,0l0,3.2l11.6886,0l0,-3.2zm-10.3085,2.4096c0.822,-1.4014 1.2111,-3.0238 1.2111,-4.6519l-3.2,0c0,1.1292 -0.2708,2.1797 -0.7713,3.0328l2.7602,1.6191zm1.2111,-4.6519c0,-0.3692 0.0011,-0.8199 -0.049,-1.3268l-3.1845,0.3149c0.0325,0.3283 0.0335,0.6294 0.0335,1.0119l3.2,0zm-1.6413,0.4306l9.1276,0l0,-3.2l-9.1276,0l0,3.2zm10.6937,-1.9275c-0.5403,-2.5837 -2.1904,-5.0513 -4.2181,-6.8598c-2.0174,-1.7993 -4.6317,-3.1414 -7.2603,-3.1414l0,3.2c1.5841,0 3.4719,0.8504 5.1303,2.3296c1.6483,1.47 2.8479,3.3669 3.2158,5.1266l3.1323,-0.655zm-11.4784,-10.0012l-1.8581,0l0,3.2l1.8581,0l0,-3.2zm-0.4574,0.8267c-2.0982,-3.8011 -5.1558,-7.2491 -8.8383,-9.776l-1.8105,2.6386c3.2561,2.2343 5.9807,5.3023 7.8473,8.6839l2.8015,-1.5465zm-8.3144,-7.7372c1.2751,-2.5328 1.9051,-5.3283 1.9051,-8.1951l-3.2,0c0,2.3959 -0.5256,4.6948 -1.5633,6.7561l2.8582,1.439zm1.9051,-8.1951c0,-0.4238 0.0056,-1.0466 -0.1123,-1.6455l-3.1398,0.618c0.0465,0.2361 0.0521,0.5325 0.0521,1.0275l3.2,0zm-0.6686,-0.0985c1.4653,-1.1996 3.3413,-1.935 5.3877,-1.935l0,-3.2c-2.8273,0 -5.4109,1.0184 -7.4148,2.65897l2.0271,2.47603zm5.3877,-1.935c4.6386,0 8.4778,3.8232 8.4778,8.5907l3.2,0c0,-6.5097 -5.2469,-11.7907 -11.6778,-11.7907l0,3.2zm-6.7214,8.5907c0,3.7234 3.0298,6.7366 6.7214,6.7366l0,-3.2c-1.9246,0 -3.5214,-1.5809 -3.5214,-3.5366l-3.2,0zm6.7214,6.7366c3.6925,0 6.7213,-3.0133 6.7213,-6.7366l-3.2,0c0,1.9559 -1.5961,3.5366 -3.5213,3.5366l0,3.2zm6.7213,-6.7366c0,-3.7569 -3.0203,-6.7788 -6.7213,-6.7788l0,3.2c1.9167,0 3.5213,1.5722 3.5213,3.5788l3.2,0zm-6.7213,-6.7788c-3.7001,0 -6.7214,3.0218 -6.7214,6.7788l3.2,0c0,-2.0064 1.6053,-3.5788 3.5214,-3.5788l0,-3.2z"/>
 </g>
</svg>