<svg width="67" height="60.00000000000001" xmlns="http://www.w3.org/2000/svg">

 <g>
  <title>background</title>
  <rect fill="none" id="canvas_background" height="402" width="582" y="-1" x="-1"/>
 </g>
 <g>
  <title>Layer 1</title>
  <path id="svg_1" fill="#007fff" d="m14.326,2l-10.27166,0c-1.12989,0 -2.05434,0.91085 -2.05434,2.02411l0,10.12059c0,1.1132 0.92445,2.0241 2.05434,2.0241l10.27166,0c1.1299,0 2.0544,-0.9109 2.0544,-2.0241l0,-10.12059c0,-1.11326 -0.9245,-2.02411 -2.0544,-2.02411zm-2.0543,10.1205l-6.16303,0l0,-6.07228l6.16303,0l0,6.07228zm-8.21736,10.7951l10.27166,0c1.1299,0 2.0544,0.9107 2.0544,2.024l0,10.1205c0,1.1133 -0.9245,2.0241 -2.0544,2.0241l-10.27166,0c-1.12989,0 -2.05434,-0.9108 -2.05434,-2.0241l0,-10.1205c0,-1.1133 0.92445,-2.024 2.05434,-2.024zm2.05433,10.1204l6.16303,0l0,-6.0723l-6.16303,0l0,6.0723zm-2.05433,10.7952l10.27166,0c1.1299,0 2.0544,0.9109 2.0544,2.0242l0,10.1205c0,1.1133 -0.9245,2.0241 -2.0544,2.0241l-10.27166,0c-1.12989,0 -2.05434,-0.9108 -2.05434,-2.0241l0,-10.1205c0,-1.1133 0.92445,-2.0242 2.05434,-2.0242zm2.05433,10.1206l6.16303,0l0,-6.0723l-6.16303,0l0,6.0723zm19.17403,-42.8433l37.663,0c1.1298,0 2.0543,-0.9109 2.0543,-2.02412c0,-1.11326 -0.9245,-2.02411 -2.0543,-2.02411l-37.663,0c-1.1299,0 -2.0543,0.91085 -2.0543,2.02411c0,1.11322 0.9244,2.02412 2.0543,2.02412zm0,16.8672l37.663,0c1.1298,0 2.0543,0.9109 2.0543,2.0241c0,1.1133 -0.9245,2.0241 -2.0543,2.0241l-37.663,0c-1.1299,0 -2.0543,-0.9108 -2.0543,-2.0241c0,-1.1132 0.9244,-2.0241 2.0543,-2.0241zm0,20.9158l37.663,0c1.1298,0 2.0543,0.9109 2.0543,2.0241c0,1.1133 -0.9245,2.0241 -2.0543,2.0241l-37.663,0c-1.1299,0 -2.0543,-0.9108 -2.0543,-2.0241c0,-1.1132 0.9244,-2.0241 2.0543,-2.0241z" clip-rule="evenodd" fill-rule="evenodd"/>
  <path id="svg_2" fill="none" d="m12.2717,12.1205l0,1.25l1.25,0l0,-1.25l-1.25,0zm-6.16303,0l-1.25,0l0,1.25l1.25,0l0,-1.25zm0,-6.07228l0,-1.25l-1.25,0l0,1.25l1.25,0zm6.16303,0l1.25,0l0,-1.25l-1.25,0l0,1.25zm-6.16303,26.98778l-1.25,0l0,1.25l1.25,0l0,-1.25zm6.16303,0l0,1.25l1.25,0l0,-1.25l-1.25,0zm0,-6.0723l1.25,0l0,-1.25l-1.25,0l0,1.25zm-6.16303,0l0,-1.25l-1.25,0l0,1.25l1.25,0zm0,26.9881l-1.25,0l0,1.25l1.25,0l0,-1.25zm6.16303,0l0,1.25l1.25,0l0,-1.25l-1.25,0zm0,-6.0723l1.25,0l0,-1.25l-1.25,0l0,1.25zm-6.16303,0l0,-1.25l-1.25,0l0,1.25l1.25,0zm8.21733,-47.1295l-10.27166,0l0,2.5l10.27166,0l0,-2.5zm-10.27166,0c-1.80271,0 -3.30434,1.45309 -3.30434,3.27411l2.5,0c0,-0.4055 0.34727,-0.77411 0.80434,-0.77411l0,-2.5zm-3.30434,3.27411l0,10.12059l2.5,0l0,-10.12059l-2.5,0zm0,10.12059c0,1.821 1.50163,3.2741 3.30434,3.2741l0,-2.5c-0.45707,0 -0.80434,-0.3686 -0.80434,-0.7741l-2.5,0zm3.30434,3.2741l10.27166,0l0,-2.5l-10.27166,0l0,2.5zm10.27166,0c1.8027,0 3.3044,-1.4531 3.3044,-3.2741l-2.5,0c0,0.4055 -0.3473,0.7741 -0.8044,0.7741l0,2.5zm3.3044,-3.2741l0,-10.12059l-2.5,0l0,10.12059l2.5,0zm0,-10.12059c0,-1.82102 -1.5017,-3.27411 -3.3044,-3.27411l0,2.5c0.4571,0 0.8044,0.36861 0.8044,0.77411l2.5,0zm-5.3587,6.84639l-6.16303,0l0,2.5l6.16303,0l0,-2.5zm-4.91303,1.25l0,-6.07228l-2.5,0l0,6.07228l2.5,0zm-1.25,-4.82228l6.16303,0l0,-2.5l-6.16303,0l0,2.5zm4.91303,-1.25l0,6.07228l2.5,0l0,-6.07228l-2.5,0zm-6.96736,18.11738l10.27166,0l0,-2.5l-10.27166,0l0,2.5zm10.27166,0c0.4572,0 0.8044,0.3686 0.8044,0.774l2.5,0c0,-1.8212 -1.5018,-3.274 -3.3044,-3.274l0,2.5zm0.8044,0.774l0,10.1205l2.5,0l0,-10.1205l-2.5,0zm0,10.1205c0,0.4055 -0.3473,0.7741 -0.8044,0.7741l0,2.5c1.8027,0 3.3044,-1.4531 3.3044,-3.2741l-2.5,0zm-0.8044,0.7741l-10.27166,0l0,2.5l10.27166,0l0,-2.5zm-10.27166,0c-0.45707,0 -0.80434,-0.3686 -0.80434,-0.7741l-2.5,0c0,1.821 1.50163,3.2741 3.30434,3.2741l0,-2.5zm-0.80434,-0.7741l0,-10.1205l-2.5,0l0,10.1205l2.5,0zm0,-10.1205c0,-0.4054 0.34714,-0.774 0.80434,-0.774l0,-2.5c-1.80257,0 -3.30434,1.4528 -3.30434,3.274l2.5,0zm2.85867,9.3464l6.16303,0l0,-2.5l-6.16303,0l0,2.5zm7.41303,-1.25l0,-6.0723l-2.5,0l0,6.0723l2.5,0zm-1.25,-7.3223l-6.16303,0l0,2.5l6.16303,0l0,-2.5zm-7.41303,1.25l0,6.0723l2.5,0l0,-6.0723l-2.5,0zm-0.80433,18.1175l10.27166,0l0,-2.5l-10.27166,0l0,2.5zm10.27166,0c0.4571,0 0.8044,0.3687 0.8044,0.7742l2.5,0c0,-1.8211 -1.5017,-3.2742 -3.3044,-3.2742l0,2.5zm0.8044,0.7742l0,10.1205l2.5,0l0,-10.1205l-2.5,0zm0,10.1205c0,0.4055 -0.3473,0.7741 -0.8044,0.7741l0,2.5c1.8027,0 3.3044,-1.4531 3.3044,-3.2741l-2.5,0zm-0.8044,0.7741l-10.27166,0l0,2.5l10.27166,0l0,-2.5zm-10.27166,0c-0.45707,0 -0.80434,-0.3686 -0.80434,-0.7741l-2.5,0c0,1.821 1.50163,3.2741 3.30434,3.2741l0,-2.5zm-0.80434,-0.7741l0,-10.1205l-2.5,0l0,10.1205l2.5,0zm0,-10.1205c0,-0.4055 0.34727,-0.7742 0.80434,-0.7742l0,-2.5c-1.80271,0 -3.30434,1.4531 -3.30434,3.2742l2.5,0zm2.85867,9.3464l6.16303,0l0,-2.5l-6.16303,0l0,2.5zm7.41303,-1.25l0,-6.0723l-2.5,0l0,6.0723l2.5,0zm-1.25,-7.3223l-6.16303,0l0,2.5l6.16303,0l0,-2.5zm-7.41303,1.25l0,6.0723l2.5,0l0,-6.0723l-2.5,0zm20.42403,-35.521l37.663,0l0,-2.50001l-37.663,0l0,2.50001zm37.663,0c1.8027,0 3.3043,-1.4531 3.3043,-3.27412l-2.5,0c0,0.4055 -0.3473,0.77411 -0.8043,0.77411l0,2.50001zm3.3043,-3.27412c0,-1.82102 -1.5016,-3.27411 -3.3043,-3.27411l0,2.5c0.457,0 0.8043,0.36861 0.8043,0.77411l2.5,0zm-3.3043,-3.27411l-37.663,0l0,2.5l37.663,0l0,-2.5zm-37.663,0c-1.8027,0 -3.3043,1.45309 -3.3043,3.27411l2.5,0c0,-0.4055 0.3473,-0.77411 0.8043,-0.77411l0,-2.5zm-3.3043,3.27411c0,1.82102 1.5016,3.27412 3.3043,3.27412l0,-2.50001c-0.457,0 -0.8043,-0.36861 -0.8043,-0.77411l-2.5,0zm3.3043,20.14132l37.663,0l0,-2.5l-37.663,0l0,2.5zm37.663,0c0.457,0 0.8043,0.3686 0.8043,0.7741l2.5,0c0,-1.821 -1.5016,-3.2741 -3.3043,-3.2741l0,2.5zm0.8043,0.7741c0,0.4055 -0.3473,0.7741 -0.8043,0.7741l0,2.5c1.8027,0 3.3043,-1.453 3.3043,-3.2741l-2.5,0zm-0.8043,0.7741l-37.663,0l0,2.5l37.663,0l0,-2.5zm-37.663,0c-0.457,0 -0.8043,-0.3686 -0.8043,-0.7741l-2.5,0c0,1.8211 1.5016,3.2741 3.3043,3.2741l0,-2.5zm-0.8043,-0.7741c0,-0.4055 0.3473,-0.7741 0.8043,-0.7741l0,-2.5c-1.8027,0 -3.3043,1.4531 -3.3043,3.2741l2.5,0zm0.8043,20.1417l37.663,0l0,-2.5l-37.663,0l0,2.5zm37.663,0c0.457,0 0.8043,0.3686 0.8043,0.7741l2.5,0c0,-1.821 -1.5016,-3.2741 -3.3043,-3.2741l0,2.5zm0.8043,0.7741c0,0.4055 -0.3473,0.7741 -0.8043,0.7741l0,2.5c1.8027,0 3.3043,-1.4531 3.3043,-3.2741l-2.5,0zm-0.8043,0.7741l-37.663,0l0,2.5l37.663,0l0,-2.5zm-37.663,0c-0.457,0 -0.8043,-0.3686 -0.8043,-0.7741l-2.5,0c0,1.821 1.5016,3.2741 3.3043,3.2741l0,-2.5zm-0.8043,-0.7741c0,-0.4055 0.3473,-0.7741 0.8043,-0.7741l0,-2.5c-1.8027,0 -3.3043,1.4531 -3.3043,3.2741l2.5,0z"/>
 </g>
</svg>