<svg width="23" height="27" viewBox="0 0 23 19" fill="none" xmlns="http://www.w3.org/2000/svg">
<path fill-rule="evenodd" clip-rule="evenodd" d="M20.2928 2.92303C21.2241 2.81557 22.1554 2.55765 23 2.19228C22.3719 3.13796 21.5706 3.95469 20.6177 4.64246C20.6394 4.83592 20.6394 5.02936 20.6394 5.24429C20.6394 11.4127 15.9181 18.5484 7.23355 18.5484C4.56967 18.5484 2.07909 17.7746 0 16.4421C0.368173 16.4851 0.736345 16.5066 1.12617 16.5066C3.33521 16.5066 5.37099 15.7543 6.97366 14.5077C4.91619 14.4647 3.18361 13.0892 2.57721 11.2408C2.85875 11.3053 3.16195 11.3268 3.46515 11.3268C3.8983 11.3268 4.30978 11.2838 4.69961 11.1763C2.55555 10.7465 0.93126 8.85509 0.93126 6.57685V6.53386C1.55932 6.87775 2.29566 7.09268 3.05367 7.11417C1.79755 6.27595 0.952917 4.83592 0.952917 3.22393C0.952917 2.36422 1.19115 1.56898 1.60263 0.859716C3.94161 3.69678 7.40681 5.56668 11.3268 5.76012C11.2401 5.41623 11.2185 5.05085 11.2185 4.68545C11.2185 2.1063 13.3409 0 15.9397 0C17.2825 0 18.517 0.558815 19.3832 1.48301C20.4444 1.26808 21.4623 0.881209 22.3719 0.343886C22.0254 1.44002 21.2674 2.34273 20.2928 2.92303Z" fill="white"/>
</svg>
