<svg width="27" height="27" viewBox="0 0 27 27" fill="none" xmlns="http://www.w3.org/2000/svg">
<path fill-rule="evenodd" clip-rule="evenodd" d="M20.8272 4H7.16147C5.41643 4 4 5.41643 4 7.16147V20.8385C4 22.5836 5.41643 24 7.16147 24H20.8385C22.5836 24 24 22.5836 24 20.8385V7.16147C23.9887 5.41643 22.5722 4 20.8272 4ZM22.6289 20.8385C22.6289 21.8357 21.8244 22.6402 20.8272 22.6402H7.16147C6.1643 22.6402 5.35977 21.8357 5.35977 20.8385V7.16147C5.35977 6.1643 6.1643 5.35977 7.16147 5.35977H20.8385C21.8357 5.35977 22.6402 6.1643 22.6402 7.16147V20.8385H22.6289ZM13.9942 9.57497C11.558 9.57497 9.57497 11.558 9.57497 13.9942C9.57497 16.4305 11.558 18.4135 13.9942 18.4135C16.4305 18.4135 18.4135 16.4305 18.4135 13.9942C18.4135 11.558 16.4305 9.57497 13.9942 9.57497ZM13.9942 17.0651C12.3059 17.0651 10.9347 15.6939 10.9347 14.0056C10.9347 12.3172 12.3059 10.9461 13.9942 10.9461C15.6826 10.9461 17.0537 12.3172 17.0537 14.0056C17.0537 15.6826 15.6826 17.0651 13.9942 17.0651ZM21.1784 9.13317C21.1784 9.75899 20.6711 10.2663 20.0452 10.2663C19.4194 10.2663 18.9121 9.75899 18.9121 9.13317C18.9121 8.50735 19.4194 8.00003 20.0452 8.00003C20.6711 8.00003 21.1784 8.50735 21.1784 9.13317Z" fill="white"/>
</svg>
