<svg width="92" height="92" xmlns="http://www.w3.org/2000/svg">
 <mask id="path-1-inside-1">
  <path id="svg_1" d="m33.2683,32.6154l7.1829,0c1.2476,0 2.2683,-1.0385 2.2683,-2.3077c0,-1.2692 -1.0207,-2.3077 -2.2683,-2.3077l-7.1829,0c-1.2475,0 -2.2683,1.0385 -2.2683,2.3077c0,1.2692 1.0208,2.3077 2.2683,2.3077zm15.4998,0l10.9636,0c1.2476,0 2.2683,-1.0385 2.2683,-2.3077c0,-1.2692 -1.0207,-2.3077 -2.2683,-2.3077l-10.9636,0c-1.2476,0 -2.2684,1.0385 -2.2684,2.3077c0,1.2692 1.0208,2.3077 2.2684,2.3077zm-4.5363,15.3846l-10.9635,0c-1.2475,0 -2.2683,-1.0385 -2.2683,-2.3077c0,-1.2692 1.0208,-2.3077 2.2683,-2.3077l10.9635,0c1.2475,0 2.2683,1.0385 2.2683,2.3077c0,1.2692 -1.0208,2.3077 -2.2683,2.3077zm8.3168,0l7.1831,0c1.2475,0 2.2683,-1.0385 2.2683,-2.3077c0,-1.2692 -1.0208,-2.3077 -2.2683,-2.3077l-7.1831,0c-1.2476,0 -2.2683,1.0385 -2.2683,2.3077c0,1.2692 1.0207,2.3077 2.2683,2.3077z" clip-rule="evenodd" fill-rule="evenodd"/>
 </mask>

 <mask id="path-3-inside-2">
  <path id="svg_2" d="m15,72.9792c0,5.5114 4.55,10.0208 10.1111,10.0208l50.5556,0c1.2833,0 2.3333,-1.0406 2.3333,-2.3125l0,-5.0104c0,-1.2719 -1.05,-2.3125 -2.3333,-2.3125c-1.2834,0 -2.3334,1.0406 -2.3334,2.3125l0,2.6979l-48.2222,0c-2.9944,0 -5.4444,-2.4281 -5.4444,-5.3958c0,-1.4646 0.5444,-2.775 1.6333,-3.8157c1.0111,-1.002 2.3334,-1.5802 3.8111,-1.5802l50.5556,0c1.2833,0 2.3333,-1.0406 2.3333,-2.3125l0,-53.9583c0,-1.2719 -1.05,-2.3125 -2.3333,-2.3125l-50.5556,0c-5.5611,0 -10.1111,4.5094 -10.1111,10.0208l0,53.9584zm4.6667,-8.4592c1.586,-1.0167 3.4744,-1.5617 5.4444,-1.5617l48.2222,0l0,-49.3333l-48.2222,0c-2.9944,0 -5.4444,2.4281 -5.4444,5.3958l0,45.4992z" clip-rule="evenodd" fill-rule="evenodd"/>
 </mask>
 <g>
  <title>background</title>
  <rect fill="none" id="canvas_background" height="402" width="582" y="-1" x="-1"/>
 </g>
 <g>
  <title>Layer 1</title>
  <path id="svg_3" fill="#007fff" d="m33.460127,32.6154l7.1829,0c1.2476,0 2.2683,-1.0385 2.2683,-2.3077c0,-1.2692 -1.0207,-2.3077 -2.2683,-2.3077l-7.1829,0c-1.2475,0 -2.2683,1.0385 -2.2683,2.3077c0,1.2692 1.0208,2.3077 2.2683,2.3077zm15.4998,0l10.9636,0c1.2476,0 2.2683,-1.0385 2.2683,-2.3077c0,-1.2692 -1.0207,-2.3077 -2.2683,-2.3077l-10.9636,0c-1.2476,0 -2.2684,1.0385 -2.2684,2.3077c0,1.2692 1.0208,2.3077 2.2684,2.3077zm-4.5363,15.3846l-10.9635,0c-1.2475,0 -2.2683,-1.0385 -2.2683,-2.3077c0,-1.2692 1.0208,-2.3077 2.2683,-2.3077l10.9635,0c1.2475,0 2.2683,1.0385 2.2683,2.3077c0,1.2692 -1.0208,2.3077 -2.2683,2.3077zm8.3168,0l7.1831,0c1.2475,0 2.2683,-1.0385 2.2683,-2.3077c0,-1.2692 -1.0208,-2.3077 -2.2683,-2.3077l-7.1831,0c-1.2476,0 -2.2683,1.0385 -2.2683,2.3077c0,1.2692 1.0207,2.3077 2.2683,2.3077z" clip-rule="evenodd" fill-rule="evenodd"/>
  <path id="svg_4" mask="url(#path-1-inside-1)" fill="#007fff" d="m33.460126,34.1154l7.1829,0l0,-3l-7.1829,0l0,3zm7.1829,0c2.1002,0 3.7683,-1.7345 3.7683,-3.8077l-3,0c0,0.4652 -0.3734,0.8077 -0.7683,0.8077l0,3zm3.7683,-3.8077c0,-2.0732 -1.6681,-3.8077 -3.7683,-3.8077l0,3c0.3949,0 0.7683,0.3425 0.7683,0.8077l3,0zm-3.7683,-3.8077l-7.1829,0l0,3l7.1829,0l0,-3zm-7.1829,0c-2.1002,0 -3.7683,1.7345 -3.7683,3.8077l3,0c0,-0.4652 0.3734,-0.8077 0.7683,-0.8077l0,-3zm-3.7683,3.8077c0,2.0732 1.6681,3.8077 3.7683,3.8077l0,-3c-0.3949,0 -0.7683,-0.3425 -0.7683,-0.8077l-3,0zm19.2681,3.8077l10.9636,0l0,-3l-10.9636,0l0,3zm10.9636,0c2.1002,0 3.7683,-1.7345 3.7683,-3.8077l-3,0c0,0.4652 -0.3734,0.8077 -0.7683,0.8077l0,3zm3.7683,-3.8077c0,-2.0732 -1.6681,-3.8077 -3.7683,-3.8077l0,3c0.3949,0 0.7683,0.3425 0.7683,0.8077l3,0zm-3.7683,-3.8077l-10.9636,0l0,3l10.9636,0l0,-3zm-10.9636,0c-2.1003,0 -3.7684,1.7345 -3.7684,3.8077l3,0c0,-0.4652 0.3734,-0.8077 0.7684,-0.8077l0,-3zm-3.7684,3.8077c0,2.0732 1.6681,3.8077 3.7684,3.8077l0,-3c-0.395,0 -0.7684,-0.3425 -0.7684,-0.8077l-3,0zm-0.7679,16.1923l-10.9635,0l0,3l10.9635,0l0,-3zm-10.9635,0c-0.3949,0 -0.7683,-0.3425 -0.7683,-0.8077l-3,0c0,2.0732 1.6681,3.8077 3.7683,3.8077l0,-3zm-0.7683,-0.8077c0,-0.4652 0.3734,-0.8077 0.7683,-0.8077l0,-3c-2.1002,0 -3.7683,1.7345 -3.7683,3.8077l3,0zm0.7683,-0.8077l10.9635,0l0,-3l-10.9635,0l0,3zm10.9635,0c0.3949,0 0.7683,0.3425 0.7683,0.8077l3,0c0,-2.0732 -1.6681,-3.8077 -3.7683,-3.8077l0,3zm0.7683,0.8077c0,0.4652 -0.3734,0.8077 -0.7683,0.8077l0,3c2.1002,0 3.7683,-1.7345 3.7683,-3.8077l-3,0zm7.5485,3.8077l7.1831,0l0,-3l-7.1831,0l0,3zm7.1831,0c2.1002,0 3.7683,-1.7345 3.7683,-3.8077l-3,0c0,0.4652 -0.3734,0.8077 -0.7683,0.8077l0,3zm3.7683,-3.8077c0,-2.0732 -1.6681,-3.8077 -3.7683,-3.8077l0,3c0.3949,0 0.7683,0.3425 0.7683,0.8077l3,0zm-3.7683,-3.8077l-7.1831,0l0,3l7.1831,0l0,-3zm-7.1831,0c-2.1002,0 -3.7683,1.7345 -3.7683,3.8077l3,0c0,-0.4652 0.3734,-0.8077 0.7683,-0.8077l0,-3zm-3.7683,3.8077c0,2.0732 1.6681,3.8077 3.7683,3.8077l0,-3c-0.3949,0 -0.7683,-0.3425 -0.7683,-0.8077l-3,0z"/>
  <path id="svg_5" fill="#007fff" d="m15,72.9792c0,5.5114 4.55,10.0208 10.1111,10.0208l50.5556,0c1.2833,0 2.3333,-1.0406 2.3333,-2.3125l0,-5.0104c0,-1.2719 -1.05,-2.3125 -2.3333,-2.3125c-1.2834,0 -2.3334,1.0406 -2.3334,2.3125l0,2.6979l-48.2222,0c-2.9944,0 -5.4444,-2.4281 -5.4444,-5.3958c0,-1.4646 0.5444,-2.775 1.6333,-3.8157c1.0111,-1.002 2.3334,-1.5802 3.8111,-1.5802l50.5556,0c1.2833,0 2.3333,-1.0406 2.3333,-2.3125l0,-53.9583c0,-1.2719 -1.05,-2.3125 -2.3333,-2.3125l-50.5556,0c-5.5611,0 -10.1111,4.5094 -10.1111,10.0208l0,53.9584zm4.6667,-8.4592c1.586,-1.0167 3.4744,-1.5617 5.4444,-1.5617l48.2222,0l0,-49.3333l-48.2222,0c-2.9944,0 -5.4444,2.4281 -5.4444,5.3958l0,45.4992z" clip-rule="evenodd" fill-rule="evenodd"/>
  <path id="svg_6" mask="url(#path-3-inside-2)" fill="#007fff" d="m73.429213,78.375l0,1.5l1.5,0l0,-1.5l-1.5,0zm-52.0333,-9.2115l1.0364,1.0845l0.0098,-0.0095l0.0097,-0.0096l-1.0559,-1.0654zm-1.6333,-4.6435l-1.5,0l0,2.7434l2.3095,-1.4806l-0.8095,-1.2628zm53.6666,-1.5617l0,1.5l1.5,0l0,-1.5l-1.5,0zm0,-49.3333l1.5,0l0,-1.5l-1.5,0l0,1.5zm-59.8333,59.3542c0,6.3525 5.2343,11.5208 11.6111,11.5208l0,-3c-4.7454,0 -8.6111,-3.8505 -8.6111,-8.5208l-3,0zm11.6111,11.5208l50.5556,0l0,-3l-50.5556,0l0,3zm50.5556,0c2.099,0 3.8333,-1.6995 3.8333,-3.8125l-3,0c0,0.4308 -0.3657,0.8125 -0.8333,0.8125l0,3zm3.8333,-3.8125l0,-5.0104l-3,0l0,5.0104l3,0zm0,-5.0104c0,-2.113 -1.7343,-3.8125 -3.8333,-3.8125l0,3c0.4676,0 0.8333,0.3817 0.8333,0.8125l3,0zm-3.8333,-3.8125c-2.0991,0 -3.8334,1.6995 -3.8334,3.8125l3,0c0,-0.4308 0.3657,-0.8125 0.8334,-0.8125l0,-3zm-3.8334,3.8125l0,2.6979l3,0l0,-2.6979l-3,0zm1.5,1.1979l-48.2222,0l0,3l48.2222,0l0,-3zm-48.2222,0c-2.1787,0 -3.9444,-1.7692 -3.9444,-3.8958l-3,0c0,3.8088 3.1343,6.8958 6.9444,6.8958l0,-3zm-3.9444,-3.8958c0,-1.06 0.3805,-1.977 1.1697,-2.7312l-2.0727,-2.1689c-1.3886,1.3271 -2.097,3.0309 -2.097,4.9001l3,0zm1.1892,-2.7503c0.7419,-0.7352 1.6891,-1.1456 2.7552,-1.1456l0,-3c-1.8894,0 -3.5867,0.746 -4.867,2.0148l2.1118,2.1308zm2.7552,-1.1456l50.5556,0l0,-3l-50.5556,0l0,3zm50.5556,0c2.099,0 3.8333,-1.6995 3.8333,-3.8125l-3,0c0,0.4308 -0.3657,0.8125 -0.8333,0.8125l0,3zm3.8333,-3.8125l0,-53.9583l-3,0l0,53.9583l3,0zm0,-53.9583c0,-2.11296 -1.7343,-3.8125 -3.8333,-3.8125l0,3c0.4676,0 0.8333,0.3817 0.8333,0.8125l3,0zm-3.8333,-3.8125l-50.5556,0l0,3l50.5556,0l0,-3zm-50.5556,0c-6.3768,0 -11.6111,5.1683 -11.6111,11.5208l3,0c0,-4.6703 3.8657,-8.5208 8.6111,-8.5208l0,-3zm-11.6111,11.5208l0,53.9584l3,0l0,-53.9584l-3,0zm6.9762,46.762c1.3352,-0.8559 2.9408,-1.3245 4.6349,-1.3245l0,-3c-2.2458,0 -4.4172,0.6215 -6.254,1.799l1.6191,2.5255zm4.6349,-1.3245l48.2222,0l0,-3l-48.2222,0l0,3zm49.7222,-1.5l0,-49.3333l-3,0l0,49.3333l3,0zm-1.5,-50.8333l-48.2222,0l0,3l48.2222,0l0,-3zm-48.2222,0c-3.8101,0 -6.9444,3.087 -6.9444,6.8958l3,0c0,-2.1266 1.7657,-3.8958 3.9444,-3.8958l0,-3zm-6.9444,6.8958l0,45.4992l3,0l0,-45.4992l-3,0z"/>
 </g>
</svg>