<svg width="91" height="79" xmlns="http://www.w3.org/2000/svg">

 <g>
  <title>background</title>
  <rect fill="none" id="canvas_background" height="402" width="582" y="-1" x="-1"/>
 </g>
 <g>
  <title>Layer 1</title>
  <path id="svg_1" fill="#007fff" d="m44.38283,49.1081c0.3914,0.2155 0.7829,0.3017 1.2179,0.3017c0.435,0 0.8264,-0.0862 1.2179,-0.3017l40.8869,-21.1238c0.8699,-0.4311 1.3919,-1.3364 1.3919,-2.2848c0,-0.9484 -0.522,-1.8537 -1.4354,-2.2848l-40.8869,-21.12371c-0.7394,-0.38799 -1.6529,-0.38799 -2.3923,0l-40.88711,21.12371c-0.86993,0.4311 -1.39189,1.3364 -1.39189,2.2848c0,0.9484 0.52196,1.8537 1.39189,2.2848l40.88711,21.1238zm1.2179,-5.2163l-35.2325,-18.1923l35.2325,-18.19225l35.2323,18.19225l-35.2323,18.1923zm-1.2184,19.0114c0.3915,0.2155 0.7825,0.3017 1.2179,0.3017c0.435,0 0.8261,-0.0862 1.218,-0.3449l40.8869,-21.1237c1.2614,-0.6466 1.7398,-2.2417 1.0874,-3.4918c-0.6525,-1.2502 -2.2618,-1.7244 -3.5232,-1.0778l-39.6691,20.5202l-39.66917,-20.4771c-1.2614,-0.6897 -2.87078,-0.2155 -3.52323,1.0778c-0.65245,1.2933 -0.17399,2.8452 1.08741,3.4918l40.88709,21.1238zm1.2179,14.0968c-0.4349,0 -0.8264,-0.0862 -1.2179,-0.3018l-40.887,-21.1237c-1.2614,-0.6466 -1.78336,-2.2417 -1.08742,-3.4919c0.65245,-1.2501 2.26183,-1.7675 3.52324,-1.0777l39.66908,20.4771l39.6691,-20.5202c1.2614,-0.6467 2.8707,-0.1724 3.5232,1.0777c0.6524,1.2502 0.174,2.8453 -1.0874,3.4919l-40.8869,21.1237c-0.3915,0.2587 -0.783,0.3449 -1.218,0.3449zm0.0001,-39.6613c-1.4354,0 -2.6099,-1.1639 -2.6099,-2.5866l0,-6.4662l-6.524,0c-1.4354,0 -2.6098,-1.1639 -2.6098,-2.5866c0,-1.4226 1.1744,-2.5865 2.6098,-2.5865l6.524,0l0,-6.4669c0,-1.4226 1.1745,-2.5866 2.6099,-2.5866c1.4353,0 2.6098,1.164 2.6098,2.5866l0,6.4669l6.5249,0c1.4354,0 2.6098,1.1639 2.6098,2.5865c0,1.4227 -1.1744,2.5866 -2.6098,2.5866l-6.5249,0l0,6.4662c0,1.4227 -1.1745,2.5866 -2.6098,2.5866z" clip-rule="evenodd" fill-rule="evenodd"/>
  <path id="svg_2" fill="#007fff" d="m44.2854,49.1081l0.8441,-1.533l-0.0203,-0.0112l-0.0206,-0.0106l-0.8032,1.5548zm2.4358,0l-0.8033,-1.5548l-0.0205,0.0106l-0.0203,0.0112l0.8441,1.533zm40.8869,-21.1238l-0.777,-1.568l-0.0132,0.0065l-0.013,0.0068l0.8032,1.5547zm-0.0435,-4.5696l-0.8032,1.5548l0.0279,0.0144l0.0284,0.0134l0.7469,-1.5826zm-40.8869,-21.12371l-0.8131,1.54967l0.0098,0.00509l0.8033,-1.55476zm-2.3923,0l0.8032,1.5548l0.0099,-0.00516l-0.8131,-1.54964zm-40.88711,21.12371l0.77704,1.568l0.01316,-0.0065l0.01305,-0.0067l-0.80325,-1.5548zm0,4.5696l0.80325,-1.5547l-0.01305,-0.0068l-0.01316,-0.0065l-0.77704,1.568zm42.10501,15.9075l-0.8029,1.555l0.8029,0.4145l0.8029,-0.4145l-0.8029,-1.555zm-35.2325,-18.1923l-0.80292,-1.5549l-3.01143,1.5549l3.01143,1.555l0.80292,-1.555zm35.2325,-18.19225l0.8029,-1.55494l-0.8029,-0.41458l-0.8029,0.41458l0.8029,1.55494zm35.2323,18.19225l0.8029,1.555l3.0114,-1.555l-3.0114,-1.5549l-0.8029,1.5549zm-36.4507,37.2037l0.8441,-1.533l-0.0203,-0.0112l-0.0205,-0.0106l-0.8033,1.5548zm2.4359,-0.0432l-0.8033,-1.5547l-0.0829,0.0428l-0.0778,0.0514l0.964,1.4605zm40.8869,-21.1237l-0.7984,-1.5573l-0.0049,0.0026l0.8033,1.5547zm-2.4358,-4.5696l-0.7984,-1.5573l-0.0057,0.003l0.8041,1.5543zm-39.6691,20.5202l-0.8027,1.555l0.8036,0.4148l0.8032,-0.4155l-0.8041,-1.5543zm-39.66917,-20.4771l-0.8396,1.5355l0.01833,0.01l0.01856,0.0096l0.80271,-1.5551zm-2.43582,4.5696l0.80325,-1.5547l-0.00492,-0.0026l-0.79833,1.5573zm40.88709,34.9188l0.8441,-1.5329l-0.0203,-0.0112l-0.0205,-0.0106l-0.8033,1.5547zm-40.887,-21.1237l0.80325,-1.5548l-0.00492,-0.0025l-0.79833,1.5573zm-1.08742,-3.4919l1.52905,0.8512l0.01147,-0.0206l0.01091,-0.0209l-1.55143,-0.8097zm3.52324,-1.0777l-0.8396,1.5354l0.01833,0.0101l0.01856,0.0095l0.80271,-1.555zm39.66908,20.4771l-0.8027,1.555l0.8036,0.4148l0.8032,-0.4155l-0.8041,-1.5543zm39.6691,-20.5202l-0.7984,-1.5573l-0.0057,0.0029l0.8041,1.5544zm2.4358,4.5696l-0.7984,-1.5573l-0.0049,0.0025l0.8033,1.5548zm-40.8869,21.1237l-0.8033,-1.5547l-0.0833,0.043l-0.0782,0.0517l0.9648,1.46zm-3.8278,-48.3692l1.75,0l0,-1.75l-1.75,0l0,1.75zm0,-5.1731l0,1.75l1.75,0l0,-1.75l-1.75,0zm5.2197,0l-1.75,0l0,1.75l1.75,0l0,-1.75zm0,5.1731l0,-1.75l-1.75,0l0,1.75l1.75,0zm-4.6714,22.3552c0.6809,0.3749 1.3693,0.5187 2.062,0.5187l0,-3.5c-0.1773,0 -0.2718,-0.0285 -0.3738,-0.0847l-1.6882,3.066zm2.062,0.5187c0.6927,0 1.381,-0.1438 2.062,-0.5187l-1.6882,-3.066c-0.102,0.0562 -0.1966,0.0847 -0.3738,0.0847l0,3.5zm2.0211,-0.497l40.887,-21.1237l-1.6065,-3.1095l-40.887,21.1237l1.6065,3.1095zm40.8607,-21.1104c1.5023,-0.7445 2.3649,-2.281 2.3649,-3.8529l-3.5,0c0,0.325 -0.1814,0.5991 -0.4189,0.7168l1.554,3.1361zm2.3649,-3.8529c0,-1.5848 -0.8766,-3.1303 -2.4385,-3.8674l-1.4938,3.1652c0.265,0.1251 0.4323,0.3902 0.4323,0.7022l3.5,0zm-2.3821,-3.8396l-40.887,-21.123674l-1.6065,3.109524l40.887,21.12375l1.6065,-3.1096zm-40.8771,-21.118548c-1.2486,-0.655136 -2.7699,-0.655136 -4.0185,0l1.6262,3.099278c0.2303,-0.12084 0.5358,-0.12084 0.7661,0l1.6262,-3.099278zm-4.0087,-0.005127l-40.88705,21.123675l1.60649,3.1096l40.88706,-21.12374l-1.6065,-3.109535zm-40.86084,21.110475c-1.50231,0.7444 -2.364862,2.2809 -2.364862,3.8528l3.500002,0c0,-0.3249 0.18136,-0.599 0.41893,-0.7168l-1.55407,-3.136zm-2.364862,3.8528c0,1.5719 0.862552,3.1084 2.364862,3.8529l1.55407,-3.1361c-0.23757,-0.1177 -0.41893,-0.3918 -0.41893,-0.7168l-3.500002,0zm2.338652,3.8396l40.88705,21.1237l1.6065,-3.1095l-40.88706,-21.1237l-1.60649,3.1095zm43.71115,12.7978l-35.2325,-18.1923l-1.60582,3.1099l35.23252,18.1923l1.6058,-3.1099zm-35.2325,-15.0824l35.2325,-18.1923l-1.6058,-3.10989l-35.23252,18.19229l1.60582,3.1099zm33.6267,-18.1923l35.2323,18.1923l1.6058,-3.1099l-35.2323,-18.19229l-1.6058,3.10989zm35.2323,15.0824l-35.2323,18.1923l1.6058,3.1099l35.2323,-18.1923l-1.6058,-3.1099zm-36.4918,40.2915c0.6808,0.3749 1.3687,0.5188 2.0619,0.5188l0,-3.5c-0.1775,0 -0.2717,-0.0285 -0.3738,-0.0847l-1.6881,3.0659zm2.0619,0.5188c0.7013,0 1.4462,-0.1487 2.1819,-0.6343l-1.9279,-2.9211c-0.0413,0.0272 -0.0648,0.0351 -0.0818,0.0396c-0.0216,0.0058 -0.0709,0.0158 -0.1722,0.0158l0,3.5zm2.0212,-0.5401l40.8869,-21.1237l-1.6065,-3.1095l-40.8869,21.1237l1.6065,3.1095zm40.882,-21.1212c2.1536,-1.104 2.9279,-3.7752 1.8405,-5.8588l-3.1028,1.6193c0.2174,0.4167 0.0349,0.9356 -0.3344,1.1249l1.5967,3.1146zm1.8405,-5.8588c-1.1191,-2.1443 -3.7984,-2.8889 -5.873,-1.8254l1.5967,3.1146c0.4482,-0.2298 0.9876,-0.0259 1.1735,0.3301l3.1028,-1.6193zm-5.8787,-1.8224l-39.669,20.5201l1.6081,3.1087l39.669,-20.5201l-1.6081,-3.1087zm-38.0622,20.5194l-39.66926,-20.477l-1.60542,3.1101l39.66918,20.477l1.6055,-3.1101zm-39.63237,-20.4574c-2.10584,-1.1515 -4.81526,-0.3753 -5.925265,1.8249l3.124865,1.5765c0.1949,-0.3863 0.70423,-0.5585 1.1212,-0.3305l1.6792,-3.0709zm-5.925265,1.8249c-1.065039,2.1112 -0.306441,4.7312 1.851525,5.8374l1.59665,-3.1146c-0.36484,-0.187 -0.56317,-0.6709 -0.32331,-1.1463l-3.124865,-1.5765zm1.846605,5.8349l40.88713,21.1237l1.6065,-3.1095l-40.88714,-21.1237l-1.60649,3.1095zm42.90823,31.9158c-0.1772,0 -0.2718,-0.0286 -0.3738,-0.0847l-1.6881,3.0659c0.6809,0.3749 1.3692,0.5188 2.0619,0.5188l0,-3.5zm-0.4146,-0.1065l-40.88705,-21.1237l-1.6065,3.1095l40.88705,21.1237l1.6065,-3.1095zm-40.89197,-21.1263c-0.41602,-0.2132 -0.55189,-0.7327 -0.3567,-1.0834l-3.058092,-1.7023c-1.196704,2.1497 -0.288651,4.8203 1.818132,5.9003l1.59666,-3.1146zm-0.33432,-1.1249c0.20936,-0.4011 0.74971,-0.5611 1.13221,-0.352l1.6792,-3.0708c-2.14031,-1.1704 -4.81872,-0.2957 -5.914266,1.8035l3.102856,1.6193zm1.1691,-0.3324l39.66909,20.4771l1.6055,-3.1101l-39.66917,-20.477l-1.60542,3.11zm41.27589,20.4764l39.669,-20.5202l-1.6081,-3.1087l-39.669,20.5202l1.6081,3.1087zm39.6633,-20.5172c0.4482,-0.2298 0.9876,-0.026 1.1735,0.3301l3.1028,-1.6193c-1.1191,-2.1443 -3.7984,-2.8889 -5.873,-1.8254l1.5967,3.1146zm1.1735,0.3301c0.2174,0.4167 0.0349,0.9356 -0.3344,1.1249l1.5967,3.1146c2.1536,-1.104 2.9279,-3.7752 1.8405,-5.8588l-3.1028,1.6193zm-0.3393,1.1274l-40.8869,21.1238l1.6065,3.1095l40.8869,-21.1237l-1.6065,-3.1096zm-41.0484,21.2185c-0.0405,0.0267 -0.0637,0.0345 -0.0807,0.0391c-0.0218,0.0058 -0.0711,0.0158 -0.1725,0.0158l0,3.5c0.7007,0 1.4467,-0.1485 2.1827,-0.6348l-1.9295,-2.9201zm-0.2531,-39.6064c-0.4837,0 -0.8599,-0.3952 -0.8599,-0.8366l-3.5,0c0,2.4039 1.9727,4.3366 4.3599,4.3366l0,-3.5zm-0.8599,-0.8366l0,-6.4662l-3.5,0l0,6.4662l3.5,0zm-1.75,-8.2162l-6.524,0l0,3.5l6.524,0l0,-3.5zm-6.524,0c-0.4837,0 -0.8598,-0.3952 -0.8598,-0.8366l-3.5,0c0,2.4039 1.9727,4.3366 4.3598,4.3366l0,-3.5zm-0.8598,-0.8366c0,-0.4414 0.3761,-0.8365 0.8598,-0.8365l0,-3.5c-2.3871,0 -4.3598,1.9327 -4.3598,4.3365l3.5,0zm0.8598,-0.8365l6.524,0l0,-3.5l-6.524,0l0,3.5zm8.274,-1.75l0,-6.4669l-3.5,0l0,6.4669l3.5,0zm0,-6.4669c0,-0.4414 0.3762,-0.8366 0.8599,-0.8366l0,-3.5c-2.3872,0 -4.3599,1.9328 -4.3599,4.3366l3.5,0zm0.8599,-0.8366c0.4836,0 0.8598,0.3952 0.8598,0.8366l3.5,0c0,-2.4038 -1.9727,-4.3366 -4.3598,-4.3366l0,3.5zm0.8598,0.8366l0,6.4669l3.5,0l0,-6.4669l-3.5,0zm1.75,8.2169l6.5249,0l0,-3.5l-6.5249,0l0,3.5zm6.5249,0c0.4837,0 0.8598,0.3951 0.8598,0.8365l3.5,0c0,-2.4038 -1.9727,-4.3365 -4.3598,-4.3365l0,3.5zm0.8598,0.8365c0,0.4414 -0.3761,0.8366 -0.8598,0.8366l0,3.5c2.3871,0 4.3598,-1.9327 4.3598,-4.3366l-3.5,0zm-0.8598,0.8366l-6.5249,0l0,3.5l6.5249,0l0,-3.5zm-8.2749,1.75l0,6.4662l3.5,0l0,-6.4662l-3.5,0zm0,6.4662c0,0.4414 -0.3762,0.8366 -0.8598,0.8366l0,3.5c2.3871,0 4.3598,-1.9327 4.3598,-4.3366l-3.5,0z"/>
 </g>
</svg>