<svg width="72" height="65" xmlns="http://www.w3.org/2000/svg">
 <mask id="path-1-inside-1">
  <path id="svg_1" d="m24.7204,15.8958c-0.5292,0 -1.0937,-0.2167 -1.4818,-0.65l-7.6917,-7.84269l0,55.43049c0,1.1915 -0.9527,2.1664 -2.117,2.1664c-1.1644,0 -2.117,-0.9749 -2.117,-2.1664l0,-55.43071l-7.69188,7.84291c-0.81151,0.8666 -2.15228,0.8305 -2.999081,0c-0.8468,-0.8304 -0.811517,-2.2024 0,-3.069l11.290661,-11.553968c0.8115,-0.830443 2.1523,-0.830443 2.9991,0l11.2907,11.553968c0.8115,0.8305 0.8115,2.2025 0,3.069c-0.3882,0.4333 -0.9527,0.65 -1.482,0.65zm45.1626,18.7746l-45.1626,0c-1.1644,0 -2.117,-0.9749 -2.117,-2.1664c0,-1.1915 0.9526,-2.1663 2.117,-2.1663l45.1626,0c1.1644,0 2.117,0.9748 2.117,2.1663c0,1.1915 -0.9526,2.1664 -2.117,2.1664zm-45.1626,15.1653l31.0493,0c1.1643,0 2.117,-0.9748 2.117,-2.1663c0,-1.1915 -0.9527,-2.1664 -2.117,-2.1664l-31.0493,0c-1.1644,0 -2.117,0.9749 -2.117,2.1664c0,1.1915 0.9526,2.1663 2.117,2.1663zm0,15.1643l16.9359,0c1.1644,0 2.117,-0.9749 2.117,-2.1664c0,-1.1915 -0.9526,-2.1663 -2.117,-2.1663l-16.9359,0c-1.1644,0 -2.117,0.9748 -2.117,2.1663c0,1.1915 0.9526,2.1664 2.117,2.1664z" clip-rule="evenodd" fill-rule="evenodd"/>
 </mask>

 <g>
  <title>background</title>
  <rect fill="none" id="canvas_background" height="402" width="582" y="-1" x="-1"/>
 </g>
 <g>
  <title>Layer 1</title>
  <path id="svg_2" fill="#007fff" d="m24.797488,15.818712c-0.5292,0 -1.0937,-0.2167 -1.4818,-0.65l-7.6917,-7.84269l0,55.43049c0,1.1915 -0.9527,2.1664 -2.117,2.1664c-1.1644,0 -2.117,-0.9749 -2.117,-2.1664l0,-55.43071l-7.69188,7.84291c-0.81151,0.8666 -2.15228,0.8305 -2.999081,0c-0.8468,-0.8304 -0.811517,-2.2024 0,-3.069l11.290661,-11.553968c0.8115,-0.830443 2.1523,-0.830443 2.9991,0l11.2907,11.553968c0.8115,0.8305 0.8115,2.2025 0,3.069c-0.3882,0.4333 -0.9527,0.65 -1.482,0.65zm45.1626,18.7746l-45.1626,0c-1.1644,0 -2.117,-0.9749 -2.117,-2.1664c0,-1.1915 0.9526,-2.1663 2.117,-2.1663l45.1626,0c1.1644,0 2.117,0.9748 2.117,2.1663c0,1.1915 -0.9526,2.1664 -2.117,2.1664zm-45.1626,15.1653l31.0493,0c1.1643,0 2.117,-0.9748 2.117,-2.1663c0,-1.1915 -0.9527,-2.1664 -2.117,-2.1664l-31.0493,0c-1.1644,0 -2.117,0.9749 -2.117,2.1664c0,1.1915 0.9526,2.1663 2.117,2.1663zm0,15.1643l16.9359,0c1.1644,0 2.117,-0.9749 2.117,-2.1664c0,-1.1915 -0.9526,-2.1663 -2.117,-2.1663l-16.9359,0c-1.1644,0 -2.117,0.9748 -2.117,2.1663c0,1.1915 0.9526,2.1664 2.117,2.1664z" clip-rule="evenodd" fill-rule="evenodd"/>
  <path id="svg_3" mask="url(#path-1-inside-1)" fill="#007fff" d="m23.2386,15.2458l0.9683,-0.8673l-0.0196,-0.0219l-0.0206,-0.021l-0.9281,0.9102zm-7.6917,-7.84269l0.9281,-0.91026l-2.2281,-2.2719l0,3.18216l1.3,0zm-4.234,-0.00022l1.3,0l0,-3.18215l-2.2281,2.2719l0.9281,0.91025zm-7.69188,7.84291l-0.92813,-0.9102l-0.0105,0.0107l-0.01024,0.0109l0.94887,0.8886zm-2.999081,-3.069l-0.929773,-0.9086l-0.009657,0.0099l-0.009445,0.0101l0.948875,0.8886zm11.290661,-11.553968l0.9298,0.908578l-0.9298,-0.908578zm2.9991,0l0.9298,-0.908582l-0.0097,-0.009893l-0.0099,-0.009684l-0.9102,0.928159zm11.2907,11.553968l0.9297,-0.9086l-0.9297,0.9086zm0,3.069l-0.9489,-0.8886l-0.0099,0.0105l-0.0096,0.0108l0.9684,0.8673zm-1.482,-0.65c-0.1976,0 -0.3963,-0.0865 -0.5135,-0.2173l-1.9367,1.7347c0.659,0.7357 1.5894,1.0826 2.4502,1.0826l0,-2.6zm-0.5537,-0.2602l-7.6917,-7.84275l-1.8562,1.82052l7.6916,7.84273l1.8563,-1.8205zm-9.9198,-6.93249l0,55.43049l2.6,0l0,-55.43049l-2.6,0zm0,55.43049c0,0.502 -0.3987,0.8664 -0.817,0.8664l0,2.6c1.9104,0 3.417,-1.5853 3.417,-3.4664l-2.6,0zm-0.817,0.8664c-0.4183,0 -0.817,-0.3644 -0.817,-0.8664l-2.6,0c0,1.8811 1.5066,3.4664 3.417,3.4664l0,-2.6zm-0.817,-0.8664l0,-55.43071l-2.6,0l0,55.43071l2.6,0zm-2.2281,-56.34096l-7.69191,7.84296l1.85627,1.8205l7.69184,-7.84295l-1.8562,-1.82051zm-7.71265,7.86456c-0.26332,0.2812 -0.76102,0.3321 -1.13998,-0.0395l-1.820462,1.8563c1.314642,1.2893 3.498472,1.4124 4.858192,-0.0395l-1.89775,-1.7773zm-1.13998,-0.0395c-0.29274,-0.2871 -0.33919,-0.8488 0.03864,-1.2523l-1.897746,-1.7772c-1.245204,1.3297 -1.362224,3.512 0.038644,4.8858l1.820462,-1.8563zm0.01954,-1.2323l11.29069,-11.55399l-1.8596,-1.81716l-11.290634,11.55395l1.859544,1.8172zm11.29069,-11.55399c0.2909,-0.29772 0.8068,-0.3259 1.1591,0.01958l1.8204,-1.856317c-1.3413,-1.315403 -3.507,-1.343583 -4.8391,0.019577l1.8596,1.81716zm1.1395,0l11.2907,11.55399l1.8595,-1.8172l-11.2906,-11.55395l-1.8596,1.81716zm11.2907,11.55399c0.3076,0.3148 0.3345,0.8943 -0.0191,1.2718l1.8977,1.7773c1.2695,-1.3556 1.2963,-3.5202 -0.0191,-4.8663l-1.8595,1.8172zm-0.0386,1.2931c-0.1172,0.1308 -0.3159,0.2173 -0.5136,0.2173l0,2.6c0.8609,0 1.7913,-0.3469 2.4503,-1.0826l-1.9367,-1.7347zm44.649,18.9919l-45.1626,0l0,2.6l45.1626,0l0,-2.6zm-45.1626,0c-0.4183,0 -0.817,-0.3644 -0.817,-0.8664l-2.6,0c0,1.8811 1.5066,3.4664 3.417,3.4664l0,-2.6zm-0.817,-0.8664c0,-0.5019 0.3987,-0.8663 0.817,-0.8663l0,-2.6c-1.9104,0 -3.417,1.5853 -3.417,3.4663l2.6,0zm0.817,-0.8663l45.1626,0l0,-2.6l-45.1626,0l0,2.6zm45.1626,0c0.4183,0 0.817,0.3644 0.817,0.8663l2.6,0c0,-1.881 -1.5066,-3.4663 -3.417,-3.4663l0,2.6zm0.817,0.8663c0,0.502 -0.3987,0.8664 -0.817,0.8664l0,2.6c1.9104,0 3.417,-1.5853 3.417,-3.4664l-2.6,0zm-45.9796,18.6317l31.0493,0l0,-2.6l-31.0493,0l0,2.6zm31.0493,0c1.9104,0 3.417,-1.5853 3.417,-3.4663l-2.6,0c0,0.5019 -0.3987,0.8663 -0.817,0.8663l0,2.6zm3.417,-3.4663c0,-1.8811 -1.5066,-3.4664 -3.417,-3.4664l0,2.6c0.4183,0 0.817,0.3644 0.817,0.8664l2.6,0zm-3.417,-3.4664l-31.0493,0l0,2.6l31.0493,0l0,-2.6zm-31.0493,0c-1.9104,0 -3.417,1.5853 -3.417,3.4664l2.6,0c0,-0.502 0.3987,-0.8664 0.817,-0.8664l0,-2.6zm-3.417,3.4664c0,1.881 1.5066,3.4663 3.417,3.4663l0,-2.6c-0.4183,0 -0.817,-0.3644 -0.817,-0.8663l-2.6,0zm3.417,18.6306l16.9359,0l0,-2.6l-16.9359,0l0,2.6zm16.9359,0c1.9104,0 3.417,-1.5853 3.417,-3.4664l-2.6,0c0,0.502 -0.3987,0.8664 -0.817,0.8664l0,2.6zm3.417,-3.4664c0,-1.881 -1.5066,-3.4663 -3.417,-3.4663l0,2.6c0.4183,0 0.817,0.3644 0.817,0.8663l2.6,0zm-3.417,-3.4663l-16.9359,0l0,2.6l16.9359,0l0,-2.6zm-16.9359,0c-1.9104,0 -3.417,1.5853 -3.417,3.4663l2.6,0c0,-0.5019 0.3987,-0.8663 0.817,-0.8663l0,-2.6zm-3.417,3.4663c0,1.8811 1.5066,3.4664 3.417,3.4664l0,-2.6c-0.4183,0 -0.817,-0.3644 -0.817,-0.8664l-2.6,0z"/>
 </g>
</svg>