<svg width="87" height="87" xmlns="http://www.w3.org/2000/svg">
 <mask id="path-1-inside-1">
  <path id="svg_1" d="m0,43.4979c0,-23.9851 19.5128,-43.4979 43.5022,-43.4979c23.9851,0 43.4978,19.5128 43.4978,43.4979c0,23.9894 -19.5127,43.5021 -43.4978,43.5021c-23.9894,0 -43.5022,-19.5127 -43.5022,-43.5021zm4,-1.5001c0,21.5044 17.4978,39.0022 39.0022,39.0022c21.5044,0 38.9978,-17.4978 38.9978,-39.0022c0,-21.5043 -17.4934,-38.9978 -38.9978,-38.9978c-21.5044,0 -39.0022,17.4935 -39.0022,38.9978zm32.1763,0.5704c1.7509,-3.7547 6.2338,-5.3864 9.9882,-3.6357c0.785,0.3661 1.4528,0.8728 2.0408,1.4464l12.1289,-6.7465c1.2535,-0.6981 2.8393,-0.2478 3.5335,1.0041c0.6942,1.2519 0.2549,2.8241 -1.0041,3.5336l-12.4231,6.9102c0.1164,1.2774 -0.0607,2.5976 -0.6404,3.8408c-1.7507,3.7544 -6.2336,5.386 -9.9884,3.6351c-3.7544,-1.7507 -5.3861,-6.2336 -3.6354,-9.988zm5.4647,6.065c1.594,0.7432 3.4929,0.0521 4.236,-1.5415c0.7432,-1.5939 0.0521,-3.4928 -1.5419,-4.2361c-1.5935,-0.7431 -3.4924,-0.0519 -4.2357,1.542c-0.7431,1.5936 -0.0519,3.4925 1.5416,4.2356zm1.8599,-32.2388c1.4341,0 2.5968,-1.1627 2.5968,-2.5973c0,-1.4344 -1.1627,-2.5971 -2.5968,-2.5971c-1.4345,0 -2.5976,1.1627 -2.5976,2.5971c0,1.4346 1.1631,2.5973 2.5976,2.5973zm-12.6021,0.084c0.7175,1.2423 0.2916,2.8306 -0.9501,3.5477c-1.2428,0.7173 -2.8311,0.2917 -3.5482,-0.9506c-0.717,-1.242 -0.2911,-2.8306 0.9506,-3.5477c1.2423,-0.7173 2.8311,-0.2916 3.5477,0.9506zm-11.8221,9.9206c-1.2423,-0.717 -2.8306,-0.2917 -3.5482,0.9506c-0.7165,1.2423 -0.2917,2.8307 0.9511,3.548c1.2418,0.717 2.8301,0.2914 3.5477,-0.9506c0.717,-1.2423 0.2917,-2.8307 -0.9506,-3.548zm-7.8751,17.1006c0,-1.4345 1.163,-2.5972 2.5971,-2.5972c1.4346,0 2.5976,1.1627 2.5976,2.5972c0,1.4345 -1.163,2.5972 -2.5976,2.5972c-1.4341,0 -2.5971,-1.1627 -2.5971,-2.5972zm62.0008,-2.5972c-1.4341,0 -2.5963,1.1627 -2.5963,2.5972c0,1.4345 1.1622,2.5972 2.5963,2.5972c1.4345,0 2.5976,-1.1627 2.5976,-2.5972c0,-1.4345 -1.1631,-2.5972 -2.5976,-2.5972zm-5.2775,-14.5034c1.2423,-0.717 2.8305,-0.2917 3.5478,0.9506c0.7177,1.2423 0.2917,2.8307 -0.9502,3.548c-1.2427,0.717 -2.8309,0.2914 -3.5482,-0.9506c-0.7168,-1.2423 -0.2917,-2.8307 0.9506,-3.548zm-8.2746,-10.8712c-1.2419,-0.7173 -2.8301,-0.2916 -3.5478,0.9506c-0.7168,1.2423 -0.2918,2.8306 0.951,3.5477c1.2419,0.7173 2.8301,0.2917 3.5478,-0.9506c0.7172,-1.242 0.2917,-2.8306 -0.951,-3.5477zm-28.4033,50.4484l24.5079,0c1.4341,0 2.5968,1.1631 2.5968,2.5971c0,1.4346 -1.1627,2.5972 -2.5968,2.5972l-24.5079,0c-1.4346,0 -2.5971,-1.1626 -2.5971,-2.5972c0,-1.434 1.1625,-2.5971 2.5971,-2.5971z" clip-rule="evenodd" fill-rule="evenodd"/>
 </mask>

 <g>
  <title>background</title>
  <rect fill="none" id="canvas_background" height="402" width="582" y="-1" x="-1"/>
 </g>
 <g>
  <title>Layer 1</title>
  <path id="svg_2" fill="#007fff" d="m0,43.4979c0,-23.9851 19.5128,-43.4979 43.5022,-43.4979c23.9851,0 43.4978,19.5128 43.4978,43.4979c0,23.9894 -19.5127,43.5021 -43.4978,43.5021c-23.9894,0 -43.5022,-19.5127 -43.5022,-43.5021zm4,-1.5001c0,21.5044 17.4978,39.0022 39.0022,39.0022c21.5044,0 38.9978,-17.4978 38.9978,-39.0022c0,-21.5043 -17.4934,-38.9978 -38.9978,-38.9978c-21.5044,0 -39.0022,17.4935 -39.0022,38.9978zm32.1763,0.5704c1.7509,-3.7547 6.2338,-5.3864 9.9882,-3.6357c0.785,0.3661 1.4528,0.8728 2.0408,1.4464l12.1289,-6.7465c1.2535,-0.6981 2.8393,-0.2478 3.5335,1.0041c0.6942,1.2519 0.2549,2.8241 -1.0041,3.5336l-12.4231,6.9102c0.1164,1.2774 -0.0607,2.5976 -0.6404,3.8408c-1.7507,3.7544 -6.2336,5.386 -9.9884,3.6351c-3.7544,-1.7507 -5.3861,-6.2336 -3.6354,-9.988zm5.4647,6.065c1.594,0.7432 3.4929,0.0521 4.236,-1.5415c0.7432,-1.5939 0.0521,-3.4928 -1.5419,-4.2361c-1.5935,-0.7431 -3.4924,-0.0519 -4.2357,1.542c-0.7431,1.5936 -0.0519,3.4925 1.5416,4.2356zm1.8599,-32.2388c1.4341,0 2.5968,-1.1627 2.5968,-2.5973c0,-1.4344 -1.1627,-2.5971 -2.5968,-2.5971c-1.4345,0 -2.5976,1.1627 -2.5976,2.5971c0,1.4346 1.1631,2.5973 2.5976,2.5973zm-12.6021,0.084c0.7175,1.2423 0.2916,2.8306 -0.9501,3.5477c-1.2428,0.7173 -2.8311,0.2917 -3.5482,-0.9506c-0.717,-1.242 -0.2911,-2.8306 0.9506,-3.5477c1.2423,-0.7173 2.8311,-0.2916 3.5477,0.9506zm-11.8221,9.9206c-1.2423,-0.717 -2.8306,-0.2917 -3.5482,0.9506c-0.7165,1.2423 -0.2917,2.8307 0.9511,3.548c1.2418,0.717 2.8301,0.2914 3.5477,-0.9506c0.717,-1.2423 0.2917,-2.8307 -0.9506,-3.548zm-7.8751,17.1006c0,-1.4345 1.163,-2.5972 2.5971,-2.5972c1.4346,0 2.5976,1.1627 2.5976,2.5972c0,1.4345 -1.163,2.5972 -2.5976,2.5972c-1.4341,0 -2.5971,-1.1627 -2.5971,-2.5972zm62.0008,-2.5972c-1.4341,0 -2.5963,1.1627 -2.5963,2.5972c0,1.4345 1.1622,2.5972 2.5963,2.5972c1.4345,0 2.5976,-1.1627 2.5976,-2.5972c0,-1.4345 -1.1631,-2.5972 -2.5976,-2.5972zm-5.2775,-14.5034c1.2423,-0.717 2.8305,-0.2917 3.5478,0.9506c0.7177,1.2423 0.2917,2.8307 -0.9502,3.548c-1.2427,0.717 -2.8309,0.2914 -3.5482,-0.9506c-0.7168,-1.2423 -0.2917,-2.8307 0.9506,-3.548zm-8.2746,-10.8712c-1.2419,-0.7173 -2.8301,-0.2916 -3.5478,0.9506c-0.7168,1.2423 -0.2918,2.8306 0.951,3.5477c1.2419,0.7173 2.8301,0.2917 3.5478,-0.9506c0.7172,-1.242 0.2917,-2.8306 -0.951,-3.5477zm-28.4033,50.4484l24.5079,0c1.4341,0 2.5968,1.1631 2.5968,2.5971c0,1.4346 -1.1627,2.5972 -2.5968,2.5972l-24.5079,0c-1.4346,0 -2.5971,-1.1626 -2.5971,-2.5972c0,-1.434 1.1625,-2.5971 2.5971,-2.5971z" clip-rule="evenodd" fill-rule="evenodd"/>
  <path id="svg_3" mask="url(#path-1-inside-1)" fill="#56aaff" d="m36.1763,42.5682l1.3595,0.634l-1.3595,-0.634zm12.029,-2.1893l-1.0475,1.0737l0.7999,0.7805l0.9767,-0.5433l-0.7291,-1.3109zm12.1289,-6.7465l0.7291,1.3109l0.0007,-0.0004l-0.7298,-1.3105zm3.5335,1.0041l1.3118,-0.7275l0,0l-1.3118,0.7275zm-1.0041,3.5336l0.7291,1.3109l0.0073,-0.0041l-0.7364,-1.3068zm-12.4231,6.9102l-0.7291,-1.3109l-0.8533,0.4746l0.0886,0.9724l1.4938,-0.1361zm-0.6404,3.8408l1.3594,0.6339l-1.3594,-0.6339zm-3.9231,-1.8294l1.3594,0.634l-1.3594,-0.634zm-5.7776,-2.6941l1.3595,0.6339l-1.3595,-0.6339zm-9.2006,-27.9192l-1.2994,0.7495l0.0005,0.0008l1.2989,-0.7503zm-0.9501,3.5477l0.7498,1.2991l0.0003,-0.0001l-0.7501,-1.299zm-3.5482,-0.9506l1.2991,-0.7498l0,-0.0002l-1.2991,0.75zm0.9506,-3.5477l-0.7501,-1.299l0,0.0001l0.7501,1.2989zm-8.2744,10.8712l0.7501,-1.299l-0.0002,-0.0001l-0.7499,1.2991zm-3.5482,0.9506l-1.2989,-0.7502l-0.0004,0.0008l1.2993,0.7494zm0.9511,3.548l0.7501,-1.299l-0.0003,-0.0002l-0.7498,1.2992zm3.5477,-0.9506l1.2988,0.7504l0.0003,-0.0006l-1.2991,-0.7498zm47.8976,-3.548l-0.7498,-1.2991l-0.0002,0.0001l0.75,1.299zm3.5478,0.9506l-1.299,0.75l0.0002,0.0004l1.2988,-0.7504zm-0.9502,3.548l0.7497,1.2992l0.0006,-0.0003l-0.7503,-1.2989zm-3.5482,-0.9506l-1.2992,0.7497l0.0003,0.0004l1.2989,-0.7501zm-7.324,-14.4192l-0.7503,1.2989l0.0006,0.0004l0.7497,-1.2993zm-3.5478,0.9506l-1.2988,-0.7504l-0.0004,0.0007l1.2992,0.7497zm0.951,3.5477l0.7502,-1.2989l-0.0006,-0.0004l-0.7496,1.2993zm3.5478,-0.9506l1.2988,0.7504l0.0001,-0.0002l-1.2989,-0.7502zm-59.1013,24.4224c0,-23.1566 18.8411,-41.9979 42.0022,-41.9979l0,-3c-24.8177,0 -45.0022,20.1843 -45.0022,44.9979l3,0zm42.0022,-41.9979c23.1567,0 41.9978,18.8412 41.9978,41.9979l3,0c0,-24.8135 -20.1843,-44.9979 -44.9978,-44.9979l0,3zm41.9978,41.9979c0,23.1611 -18.8412,42.0021 -41.9978,42.0021l0,3c24.8136,0 44.9978,-20.1844 44.9978,-45.0021l-3,0zm-41.9978,42.0021c-23.161,0 -42.0022,-18.8411 -42.0022,-42.0021l-3,0c0,24.8178 20.1844,45.0021 45.0022,45.0021l0,-3zm-41.0022,-43.5022c0,22.3328 18.1694,40.5022 40.5022,40.5022l0,-3c-20.6759,0 -37.5022,-16.8262 -37.5022,-37.5022l-3,0zm40.5022,40.5022c22.3331,0 40.4978,-18.1696 40.4978,-40.5022l-3,0c0,20.6762 -16.822,37.5022 -37.4978,37.5022l0,3zm40.4978,-40.5022c0,-22.3327 -18.165,-40.4978 -40.4978,-40.4978l0,3c20.676,0 37.4978,16.822 37.4978,37.4978l3,0zm-40.4978,-40.4978c-22.3326,0 -40.5022,18.1649 -40.5022,40.4978l3,0c0,-20.6756 16.8261,-37.4978 37.5022,-37.4978l0,-3zm-5.4664,41.7022c1.4008,-3.0041 4.9912,-4.3108 7.9948,-2.9102l1.2678,-2.7189c-4.5052,-2.1009 -9.8806,-0.1443 -11.9815,4.3612l2.7189,1.2679zm7.9948,-2.9102c0.5974,0.2785 1.1292,0.6748 1.6272,1.1606l2.095,-2.1473c-0.6779,-0.6614 -1.4817,-1.2787 -2.4544,-1.7322l-1.2678,2.7189zm3.4038,1.3978l12.1289,-6.7465l-1.4583,-2.6217l-12.1289,6.7465l1.4583,2.6217zm12.1296,-6.7469c0.5323,-0.2964 1.2018,-0.1021 1.4919,0.421l2.6236,-1.4549c-1.0984,-1.9807 -3.6003,-2.6869 -5.5752,-1.587l1.4597,2.6209zm1.4919,0.421c0.2946,0.5313 0.1117,1.1948 -0.4288,1.4994l1.4729,2.6136c1.9776,-1.1145 2.6733,-3.5953 1.5795,-5.5679l-2.6236,1.4549zm-0.4215,1.4954l-12.423,6.9101l1.4582,2.6217l12.4231,-6.9101l-1.4583,-2.6217zm-13.1877,8.3571c0.0954,1.0465 -0.0517,2.0963 -0.5061,3.0708l2.7189,1.2678c0.7051,-1.512 0.9123,-3.1025 0.7748,-4.6109l-2.9876,0.2723zm-0.5061,3.0708c-1.4006,3.0035 -4.991,4.3104 -7.995,2.9096l-1.2679,2.7189c4.5056,2.101 9.881,0.1446 11.9818,-4.3607l-2.7189,-1.2678zm-7.995,2.9096c-3.0036,-1.4006 -4.3104,-4.991 -2.9098,-7.9946l-2.7189,-1.2679c-2.1008,4.5052 -0.1444,9.8806 4.3608,11.9814l1.2679,-2.7189zm0.5615,-1.2042c2.3447,1.0933 5.1361,0.0775 6.2293,-2.2669l-2.7189,-1.2679c-0.3929,0.8426 -1.3993,1.2091 -2.2425,0.8159l-1.2679,2.7189zm6.2293,-2.2669c1.0934,-2.3448 0.0774,-5.1362 -2.2673,-6.2296l-1.2679,2.719c0.8432,0.3931 1.2095,1.3996 0.8163,2.2427l2.7189,1.2679zm-2.2673,-6.2296c-2.3445,-1.0932 -5.1358,-0.0771 -6.2291,2.2676l2.7189,1.2678c0.3932,-0.8432 1.3997,-1.2094 2.2423,-0.8164l1.2679,-2.719zm-6.2291,2.2676c-1.0932,2.3444 -0.0773,5.1357 2.2671,6.2289l1.2679,-2.7189c-0.8428,-0.393 -1.2091,-1.3994 -0.8161,-2.2422l-2.7189,-1.2678zm4.7609,-25.8693c2.2628,0 4.0968,-1.8346 4.0968,-4.0973l-3,0c0,0.6064 -0.4914,1.0973 -1.0968,1.0973l0,3zm4.0968,-4.0973c0,-2.2627 -1.8342,-4.09709 -4.0968,-4.09709l0,2.99999c0.6055,0 1.0968,0.491 1.0968,1.0971l3,0zm-4.0968,-4.09709c-2.2626,0 -4.0976,1.83389 -4.0976,4.09709l3,0c0,-0.6056 0.4912,-1.0971 1.0976,-1.0971l0,-2.99999zm-4.0976,4.09709c0,2.2632 1.8349,4.0973 4.0976,4.0973l0,-3c-0.6063,0 -1.0976,-0.4914 -1.0976,-1.0973l-3,0zm-9.8034,3.4316c0.303,0.5246 0.1232,1.1955 -0.4013,1.4984l1.5002,2.598c1.959,-1.1312 2.6309,-3.637 1.4989,-5.5969l-2.5978,1.5005zm-0.401,1.4982c-0.5257,0.3035 -1.1966,0.1232 -1.4993,-0.4012l-2.5982,1.4997c1.1314,1.9601 3.6372,2.631 5.5971,1.4998l-1.4996,-2.5983zm-1.4993,-0.4014c-0.3028,-0.5244 -0.1229,-1.1958 0.4016,-1.4987l-1.5002,-2.5979c-1.9589,1.1312 -2.6308,3.637 -1.4995,5.5966l2.5981,-1.5zm0.4015,-1.4987c0.5252,-0.3032 1.1961,-0.1228 1.4983,0.4011l2.5987,-1.499c-1.1309,-1.9605 -3.6376,-2.6315 -5.5971,-1.5001l1.5001,2.598zm-8.2745,8.2731c-1.9595,-1.131 -4.4651,-0.4601 -5.597,1.4995l2.5978,1.5005c0.3033,-0.525 0.9744,-0.7048 1.4995,-0.4017l1.4997,-2.5983zm-5.5974,1.5003c-1.1299,1.9589 -0.4604,4.4647 1.5006,5.5965l1.4996,-2.5983c-0.5246,-0.3028 -0.7047,-0.9737 -0.4015,-1.4993l-2.5987,-1.4989zm1.5003,5.5963c1.9595,1.1315 4.465,0.4596 5.5966,-1.4991l-2.5976,-1.5008c-0.3035,0.5252 -0.9748,0.7045 -1.4988,0.402l-1.5002,2.5979zm5.5969,-1.4997c1.131,-1.9594 0.4603,-4.4651 -1.4996,-5.5968l-1.5001,2.598c0.5247,0.303 0.7046,0.974 0.4015,1.4991l2.5982,1.4997zm-8.6248,12.8028c0,-0.606 0.4913,-1.0972 1.0971,-1.0972l0,-3c-2.2624,0 -4.09714,1.8342 -4.09714,4.0972l3.00004,0zm1.0971,-1.0972c0.6064,0 1.0976,0.4914 1.0976,1.0972l3,0c0,-2.2632 -1.8349,-4.0972 -4.0976,-4.0972l0,3zm1.0976,1.0972c0,0.6058 -0.4912,1.0972 -1.0976,1.0972l0,3c2.2627,0 4.0976,-1.834 4.0976,-4.0972l-3,0zm-1.0976,1.0972c-0.6058,0 -1.0971,-0.4912 -1.0971,-1.0972l-3.00004,0c0,2.2631 1.83474,4.0972 4.09714,4.0972l0,-3zm59.4037,-5.1944c-2.263,0 -4.0963,1.8348 -4.0963,4.0972l3,0c0,-0.6066 0.4911,-1.0972 1.0963,-1.0972l0,-3zm-4.0963,4.0972c0,2.2625 1.8333,4.0972 4.0963,4.0972l0,-3c-0.6052,0 -1.0963,-0.4906 -1.0963,-1.0972l-3,0zm4.0963,4.0972c2.2626,0 4.0976,-1.8339 4.0976,-4.0972l-3,0c0,0.6058 -0.4912,1.0972 -1.0976,1.0972l0,3zm4.0976,-4.0972c0,-2.2633 -1.835,-4.0972 -4.0976,-4.0972l0,3c0.6064,0 1.0976,0.4914 1.0976,1.0972l3,0zm-8.6253,-15.8014c0.5252,-0.3031 1.196,-0.1232 1.499,0.4014l2.598,-1.5c-1.1316,-1.9599 -3.6371,-2.6307 -5.5966,-1.4997l1.4996,2.5983zm1.4992,0.4018c0.3029,0.5244 0.1234,1.1954 -0.4016,1.4986l1.5005,2.5979c1.9588,-1.1314 2.6311,-3.6371 1.4987,-5.5972l-2.5976,1.5007zm-0.401,1.4983c-0.5256,0.3033 -1.1967,0.1231 -1.4996,-0.4015l-2.5979,1.5003c1.1316,1.9594 3.6369,2.6305 5.5968,1.4997l-1.4993,-2.5985zm-1.4993,-0.401c-0.3032,-0.5254 -0.1231,-1.1964 0.4014,-1.4992l-1.5001,-2.5981c-1.9602,1.1318 -2.6302,3.6375 -1.4998,5.5967l2.5985,-1.4994zm-7.8731,-14.9684c-1.9598,-1.1319 -4.4651,-0.4598 -5.5968,1.4991l2.5976,1.5008c0.3037,-0.5256 0.9747,-0.7047 1.4987,-0.4021l1.5005,-2.5978zm-5.5972,1.4998c-1.1305,1.9592 -0.4605,4.4652 1.5006,5.5966l1.4992,-2.5985c-0.5245,-0.3026 -0.7046,-0.9733 -0.4014,-1.4987l-2.5984,-1.4994zm1.5,5.5963c1.9597,1.1319 4.465,0.4599 5.5968,-1.4991l-2.5977,-1.5007c-0.3036,0.5255 -0.9747,0.7047 -1.4987,0.402l-1.5004,2.5978zm5.5969,-1.4993c1.1316,-1.9596 0.4603,-4.4659 -1.5003,-5.5971l-1.4993,2.5985c0.5249,0.3028 0.7046,0.9737 0.4017,1.4983l2.5979,1.5003zm-30.6532,47.6505l24.5079,0l0,-3l-24.5079,0l0,3zm24.5079,0c0.6053,0 1.0968,0.4912 1.0968,1.0971l3,0c0,-2.2621 -1.834,-4.0971 -4.0968,-4.0971l0,3zm1.0968,1.0971c0,0.6063 -0.4913,1.0972 -1.0968,1.0972l0,3c2.2627,0 4.0968,-1.8344 4.0968,-4.0972l-3,0zm-1.0968,1.0972l-24.5079,0l0,3l24.5079,0l0,-3zm-24.5079,0c-0.6061,0 -1.0971,-0.4909 -1.0971,-1.0972l-3,0c0,2.2629 1.8339,4.0972 4.0971,4.0972l0,-3zm-1.0971,-1.0972c0,-0.6059 0.4912,-1.0971 1.0971,-1.0971l0,-3c-2.2634,0 -4.0971,1.8349 -4.0971,4.0971l3,0z"/>
 </g>
</svg>